<mxfile host="app.diagrams.net" modified="2022-12-04T06:44:02.454Z" agent="5.0 (Windows NT 10.0; Win64; x64) AppleWebKit/537.36 (KHTML, like Gecko) Chrome/107.0.0.0 Safari/537.36" version="20.6.0" etag="D5nMWvNeF3xaznRz3Bwo" type="github">
  <diagram id="Ap8bKeP1i--mjwgJk2rT" name="페이지-1">
    <mxGraphModel dx="1497" dy="794" grid="1" gridSize="10" guides="1" tooltips="1" connect="1" arrows="1" fold="1" page="1" pageScale="1" pageWidth="827" pageHeight="1169" math="0" shadow="0">
      <root>
        <mxCell id="0" />
        <mxCell id="1" parent="0" />
        <mxCell id="gx6MtYHAHUPNFsx39C9_-2" value="" style="rounded=0;whiteSpace=wrap;html=1;fillColor=#dae8fc;strokeColor=#6c8ebf;dashed=1;" vertex="1" parent="1">
          <mxGeometry x="600" y="120" width="1250" height="280" as="geometry" />
        </mxCell>
        <mxCell id="gx6MtYHAHUPNFsx39C9_-23" value="&lt;h1&gt;Stewart-Gough Platform&lt;/h1&gt;" style="text;html=1;strokeColor=none;fillColor=none;align=center;verticalAlign=middle;whiteSpace=wrap;rounded=0;dashed=1;" vertex="1" parent="1">
          <mxGeometry x="615" y="130" width="315" height="35.63" as="geometry" />
        </mxCell>
        <mxCell id="gx6MtYHAHUPNFsx39C9_-39" style="edgeStyle=orthogonalEdgeStyle;rounded=0;orthogonalLoop=1;jettySize=auto;html=1;exitX=0;exitY=0.75;exitDx=0;exitDy=0;startArrow=classic;startFill=1;endArrow=none;endFill=0;" edge="1" parent="1" source="gx6MtYHAHUPNFsx39C9_-26">
          <mxGeometry relative="1" as="geometry">
            <mxPoint x="560" y="290" as="targetPoint" />
          </mxGeometry>
        </mxCell>
        <mxCell id="gx6MtYHAHUPNFsx39C9_-41" style="edgeStyle=orthogonalEdgeStyle;rounded=0;orthogonalLoop=1;jettySize=auto;html=1;exitX=0;exitY=0.5;exitDx=0;exitDy=0;startArrow=classic;startFill=1;endArrow=none;endFill=0;" edge="1" parent="1" source="gx6MtYHAHUPNFsx39C9_-26">
          <mxGeometry relative="1" as="geometry">
            <mxPoint x="560" y="260" as="targetPoint" />
          </mxGeometry>
        </mxCell>
        <mxCell id="gx6MtYHAHUPNFsx39C9_-44" style="edgeStyle=orthogonalEdgeStyle;rounded=0;orthogonalLoop=1;jettySize=auto;html=1;exitX=1;exitY=0.25;exitDx=0;exitDy=0;entryX=0;entryY=0.25;entryDx=0;entryDy=0;startArrow=none;startFill=0;endArrow=classic;endFill=1;" edge="1" parent="1" source="gx6MtYHAHUPNFsx39C9_-26" target="gx6MtYHAHUPNFsx39C9_-43">
          <mxGeometry relative="1" as="geometry" />
        </mxCell>
        <mxCell id="gx6MtYHAHUPNFsx39C9_-45" value="" style="edgeStyle=orthogonalEdgeStyle;rounded=0;orthogonalLoop=1;jettySize=auto;html=1;startArrow=none;startFill=0;endArrow=classic;endFill=1;" edge="1" parent="1" source="gx6MtYHAHUPNFsx39C9_-26" target="gx6MtYHAHUPNFsx39C9_-43">
          <mxGeometry relative="1" as="geometry" />
        </mxCell>
        <mxCell id="gx6MtYHAHUPNFsx39C9_-46" style="edgeStyle=orthogonalEdgeStyle;rounded=0;orthogonalLoop=1;jettySize=auto;html=1;exitX=1;exitY=0.75;exitDx=0;exitDy=0;entryX=0;entryY=0.75;entryDx=0;entryDy=0;startArrow=none;startFill=0;endArrow=classic;endFill=1;" edge="1" parent="1" source="gx6MtYHAHUPNFsx39C9_-26" target="gx6MtYHAHUPNFsx39C9_-43">
          <mxGeometry relative="1" as="geometry" />
        </mxCell>
        <mxCell id="gx6MtYHAHUPNFsx39C9_-56" style="edgeStyle=orthogonalEdgeStyle;rounded=0;orthogonalLoop=1;jettySize=auto;html=1;exitX=0.5;exitY=1;exitDx=0;exitDy=0;startArrow=classic;startFill=1;endArrow=none;endFill=0;" edge="1" parent="1" source="gx6MtYHAHUPNFsx39C9_-26">
          <mxGeometry relative="1" as="geometry">
            <mxPoint x="824" y="440" as="targetPoint" />
          </mxGeometry>
        </mxCell>
        <mxCell id="gx6MtYHAHUPNFsx39C9_-26" value="Impedance&lt;br&gt;Controller" style="whiteSpace=wrap;html=1;shadow=1;fontSize=18;fillColor=#f5f5f5;strokeColor=#666666;" vertex="1" parent="1">
          <mxGeometry x="720" y="200" width="207" height="120" as="geometry" />
        </mxCell>
        <mxCell id="gx6MtYHAHUPNFsx39C9_-42" style="edgeStyle=orthogonalEdgeStyle;rounded=0;orthogonalLoop=1;jettySize=auto;html=1;exitX=0;exitY=0.75;exitDx=0;exitDy=0;startArrow=classic;startFill=1;endArrow=none;endFill=0;" edge="1" parent="1">
          <mxGeometry relative="1" as="geometry">
            <mxPoint x="720" y="230" as="sourcePoint" />
            <mxPoint x="560" y="230" as="targetPoint" />
          </mxGeometry>
        </mxCell>
        <mxCell id="gx6MtYHAHUPNFsx39C9_-49" value="" style="edgeStyle=orthogonalEdgeStyle;rounded=0;orthogonalLoop=1;jettySize=auto;html=1;startArrow=none;startFill=0;endArrow=classic;endFill=1;" edge="1" parent="1" source="gx6MtYHAHUPNFsx39C9_-43" target="gx6MtYHAHUPNFsx39C9_-47">
          <mxGeometry relative="1" as="geometry" />
        </mxCell>
        <mxCell id="gx6MtYHAHUPNFsx39C9_-43" value="Inverse&lt;br&gt;Kinematics" style="whiteSpace=wrap;html=1;shadow=1;fontSize=18;fillColor=#f5f5f5;strokeColor=#666666;" vertex="1" parent="1">
          <mxGeometry x="997" y="200" width="207" height="120" as="geometry" />
        </mxCell>
        <mxCell id="gx6MtYHAHUPNFsx39C9_-50" value="" style="edgeStyle=orthogonalEdgeStyle;rounded=0;orthogonalLoop=1;jettySize=auto;html=1;startArrow=none;startFill=0;endArrow=classic;endFill=1;" edge="1" parent="1" source="gx6MtYHAHUPNFsx39C9_-47" target="gx6MtYHAHUPNFsx39C9_-48">
          <mxGeometry relative="1" as="geometry" />
        </mxCell>
        <mxCell id="gx6MtYHAHUPNFsx39C9_-47" value="Servo&lt;br&gt;Drive" style="whiteSpace=wrap;html=1;shadow=1;fontSize=18;fillColor=#f5f5f5;strokeColor=#666666;" vertex="1" parent="1">
          <mxGeometry x="1280" y="200" width="207" height="120" as="geometry" />
        </mxCell>
        <mxCell id="gx6MtYHAHUPNFsx39C9_-58" style="edgeStyle=orthogonalEdgeStyle;rounded=0;orthogonalLoop=1;jettySize=auto;html=1;exitX=1;exitY=0.5;exitDx=0;exitDy=0;startArrow=none;startFill=0;endArrow=classic;endFill=1;" edge="1" parent="1" source="gx6MtYHAHUPNFsx39C9_-48">
          <mxGeometry relative="1" as="geometry">
            <mxPoint x="1920" y="260" as="targetPoint" />
          </mxGeometry>
        </mxCell>
        <mxCell id="gx6MtYHAHUPNFsx39C9_-48" value="Forward&lt;br&gt;Kinematics" style="whiteSpace=wrap;html=1;shadow=1;fontSize=18;fillColor=#f5f5f5;strokeColor=#666666;" vertex="1" parent="1">
          <mxGeometry x="1560" y="200" width="207" height="120" as="geometry" />
        </mxCell>
      </root>
    </mxGraphModel>
  </diagram>
</mxfile>
